<svg width="160" height="59" viewBox="0 0 160 59" fill="none" xmlns="http://www.w3.org/2000/svg">
<path d="M157.5 29.5C157.5 32.5845 155.813 35.8353 152.07 39.0983C148.333 42.3564 142.781 45.4043 135.704 48.014C121.569 53.2263 101.875 56.5 80 56.5C58.125 56.5 38.4313 53.2263 24.2964 48.014C17.2192 45.4043 11.6668 42.3564 7.92966 39.0983C4.18689 35.8353 2.5 32.5845 2.5 29.5C2.5 26.4155 4.18689 23.1647 7.92966 19.9017C11.6668 16.6436 17.2192 13.5957 24.2964 10.986C38.4313 5.77373 58.125 2.5 80 2.5C101.875 2.5 121.569 5.77373 135.704 10.986C142.781 13.5957 148.333 16.6436 152.07 19.9017C155.813 23.1647 157.5 26.4155 157.5 29.5Z" fill="#C77592" fill-opacity="0.53" stroke="black" stroke-width="5"/>
</svg>
